{"title":"Avengers Age Of Ultron (2015) 720p mHD Blu-ray x264 AC3 English-","magnet":"magnet:?xt=urn:btih:478a3b5c93c7796a50c2b8946a2601a4299f780c&dn=Avengers+Age+Of+Ultron+%282015%29+720p+mHD+Blu-ray+x264+AC3+English-&tr=udp%3A%2F%2Ftracker.leechers-paradise.org%3A6969&tr=udp%3A%2F%2Fzer0day.ch%3A1337&tr=udp%3A%2F%2Fopen.demonii.com%3A1337&tr=udp%3A%2F%2Ftracker.coppersurfer.tk%3A6969&tr=udp%3A%2F%2Fexodus.desync.com%3A6969","uploader":"turbo1122","categoryP":"video","categoryS":"movies","size":"1647498950","seeders":"3","leechers":"10","description":"info\r\nDuration: 02:21:18.76, start: 0.000000, bitrate: 1532 kb/s\r\nStream #0:0(eng): Video: h264 (Main), yuv420p(tv, bt709), 1280x536 [SAR 1:1 DAR 160:67], 23.98 fps, 23.98 tbr, 1k tbn, 180k tbc (default)\r\nStream #0:1(eng): Audio: ac3 (LC), 48000 Hz, stereo,  (default)\r\nStream #0:2(hin): Audio: ac3 (LC), 48000 Hz, stereo, \r\n\r\nsample included","last_updated":"2017-06-12T12:01:12.461Z","parsed":{"xt":"urn:btih:478a3b5c93c7796a50c2b8946a2601a4299f780c","dn":"Avengers Age Of Ultron (2015) 720p mHD Blu-ray x264 AC3 English-","tr":["udp://exodus.desync.com:6969","udp://open.demonii.com:1337","udp://tracker.coppersurfer.tk:6969","udp://tracker.leechers-paradise.org:6969","udp://zer0day.ch:1337"],"infoHash":"478a3b5c93c7796a50c2b8946a2601a4299f780c","infoHashBuffer":{"type":"Buffer","data":[71,138,59,92,147,199,121,106,80,194,184,148,106,38,1,164,41,159,120,12]},"name":"Avengers Age Of Ultron (2015) 720p mHD Blu-ray x264 AC3 English-","announce":["udp://exodus.desync.com:6969","udp://open.demonii.com:1337","udp://tracker.coppersurfer.tk:6969","udp://tracker.leechers-paradise.org:6969","udp://zer0day.ch:1337"],"urlList":[]}}